<svg xmlns="http://www.w3.org/2000/svg" viewBox="0 0 100 100" width="100" height="100">
  <!-- Background Circle -->
  <circle cx="50" cy="50" r="48" fill="#3b82f6" stroke="#1d4ed8" stroke-width="2"/>
  
  <!-- Mountain/Hills -->
  <path d="M15 65 L30 45 L45 55 L60 40 L75 50 L85 65 Z" fill="#10b981" opacity="0.8"/>
  
  <!-- Village Houses -->
  <rect x="25" y="55" width="12" height="10" fill="#f59e0b"/>
  <polygon points="25,55 31,48 37,55" fill="#dc2626"/>
  
  <rect x="45" y="58" width="10" height="8" fill="#f59e0b"/>
  <polygon points="45,58 50,52 55,58" fill="#dc2626"/>
  
  <rect x="60" y="56" width="11" height="9" fill="#f59e0b"/>
  <polygon points="60,56 65.5,50 71,56" fill="#dc2626"/>
  
  <!-- Trees -->
  <circle cx="20" cy="60" r="4" fill="#059669"/>
  <rect x="19" y="60" width="2" height="6" fill="#92400e"/>
  
  <circle cx="75" cy="58" r="3" fill="#059669"/>
  <rect x="74.5" y="58" width="1.5" height="5" fill="#92400e"/>
  
  <!-- Sun -->
  <circle cx="75" cy="25" r="8" fill="#fbbf24" opacity="0.9"/>
  
  <!-- Text -->
  <text x="50" y="80" text-anchor="middle" font-family="Arial, sans-serif" font-size="8" font-weight="bold" fill="white">DESA</text>
  <text x="50" y="88" text-anchor="middle" font-family="Arial, sans-serif" font-size="6" fill="white">PULOSAROK</text>
</svg>