<svg xmlns="http://www.w3.org/2000/svg" viewBox="0 0 100 100" width="100" height="100">
  <defs>
    <linearGradient id="grad1" x1="0%" y1="0%" x2="100%" y2="100%">
      <stop offset="0%" style="stop-color:#4F46E5;stop-opacity:1" />
      <stop offset="100%" style="stop-color:#7C3AED;stop-opacity:1" />
    </linearGradient>
  </defs>
  
  <!-- Background circle -->
  <circle cx="50" cy="50" r="45" fill="url(#grad1)" stroke="#fff" stroke-width="2"/>
  
  <!-- Mountain/Island shape -->
  <path d="M20 60 Q30 45 40 50 Q50 35 60 50 Q70 45 80 60 L80 75 Q50 70 20 75 Z" fill="#10B981" opacity="0.8"/>
  
  <!-- Water waves -->
  <path d="M15 70 Q25 65 35 70 Q45 75 55 70 Q65 65 75 70 Q85 75 95 70" stroke="#3B82F6" stroke-width="2" fill="none" opacity="0.6"/>
  <path d="M10 80 Q20 75 30 80 Q40 85 50 80 Q60 75 70 80 Q80 85 90 80" stroke="#3B82F6" stroke-width="2" fill="none" opacity="0.4"/>
  
  <!-- Palm tree -->
  <line x1="45" y1="55" x2="45" y2="40" stroke="#8B4513" stroke-width="2"/>
  <path d="M45 40 Q40 35 35 40 Q42 38 45 40 Q48 38 55 40 Q50 35 45 40" fill="#10B981"/>
  <path d="M45 40 Q42 32 38 35 Q43 35 45 40 Q47 35 52 35 Q48 32 45 40" fill="#10B981"/>
  
  <!-- Text -->
  <text x="50" y="90" text-anchor="middle" font-family="Arial, sans-serif" font-size="8" font-weight="bold" fill="white">PULO SAROK</text>
</svg>